<svg xmlns:xlink="http://www.w3.org/1999/xlink" xmlns="http://www.w3.org/2000/svg" width="125" height="13" viewBox="0 0 125 13" title="Frávega creditos" alt="Frávega creditos" class="sc-jcVcSv kLLLGb"><g fill="none" fill-rule="evenodd"><g fill="none"><g fill="none"><g fill="none"><g fill="none"><path fill="#000" d="M43.91 2.38c2.539 0 3.57.908 3.57.908.345.284-.111.525-.111.525l-1.083.756c-.242.163-.484-.055-.484-.055-.747-.542-1.886-.578-2.107-.58h-.037c-1.54 0-3.653 1.138-3.653 2.922 0 1.782 1.488 2.32 2.682 2.32 1.193 0 1.948-.274 1.948-.274.297-.09.35-.599.35-.599l.105-.591c.077-.41-.266-.396-.266-.396h-1.166c-.456 0-.386-.426-.386-.426l.12-.71s.04-.436.494-.436h3.079c.435 0 .43.357.419.467l-.005.032-.557 3.206c-.081.546-.706.722-.706.722-1.691.536-3.329.568-3.57.57h-.031c-4.196-.054-4.63-2.534-4.647-3.45v-.116c.002-.139.013-.22.013-.22.324-3.273 3.49-4.575 6.029-4.575zm-36.495.2c.454 0 .393.43.393.43l-.142.696s-.061.418-.389.418H3.531c-.457 0-.497.433-.497.433l-.142.838s-.072.418.382.418h3.303c.453 0 .393.426.393.426l-.124.712s-.06.419-.388.419h-3.51c-.454 0-.496.432-.496.432l-.414 2.325s-.061.418-.39.418H.389c-.455 0-.384-.418-.384-.418l1.264-7.123s.042-.425.497-.425zm30.799 0c.451 0 .391.43.391.43l-.142.696s-.06.418-.389.418h-3.929c-.456 0-.497.433-.497.433l-.123.717s-.07.419.385.419h3.493c.453 0 .393.423.393.423l-.122.714s-.059.42-.388.42h-3.702c-.455 0-.495.431-.495.431l-.152.887s-.07.424.387.424h3.988c.452 0 .392.437.392.437l-.142.698s-.06.418-.388.418h-6.17c-.455 0-.384-.418-.384-.418l1.265-7.123s.04-.425.494-.425zm15.425-.005c.056.001.4.027.546.428l2.61 7.113c.167.468-.296.418-.296.418h-1.525c-.35 0-.462-.402-.462-.402l-.311-.918c-.137-.427-.508-.42-.508-.42h-3.277c-.372 0-.576.353-.576.353l-.668.985c-.288.42-.66.412-.66.412h-1.407s-.566.053-.222-.417l5.156-7.124s.304-.428.66-.428zm-32.836 0c.056.001.399.027.545.428l2.609 7.113c.168.468-.295.418-.295.418h-1.526c-.348 0-.462-.402-.462-.402l-.311-.918c-.136-.427-.507-.42-.507-.42H17.58c-.372 0-.578.353-.578.353l-.668.985c-.288.42-.659.412-.659.412h-3.3c-.373 0-.545-.428-.545-.428L10.585 7.71s-.16-.399-.456-.399h-.364c-.455 0-.495.426-.495.426l-.42 2.391s-.06.418-.391.418H7.201c-.456 0-.385-.418-.385-.418l1.265-7.123s.04-.425.496-.425h3.025c.198-.008 3.464-.112 3.435 1.949-.022 1.504-1.067 2.157-1.832 2.43 0 0-.664.237-.353.77l1.017 1.756s.281.484.637 0l4.696-6.481s.268-.378.596-.424l.933-.004zm3.496.45l1.618 4.696.007.02c.029.083.154.369.408-.02l3.044-4.717s.282-.427.688-.427h1.295s.546.012.242.437l-4.876 7.125s-.251.4-.686.4h-.989c-.349 0-.463-.407-.463-.407l-2.605-7.128s-.181-.427.204-.427h1.536s.425-.011.577.448zM52.987 5.34s-.16-.705-.615 0l-1.06 1.609s-.222.353.279.353h1.51c.066.006.49.025.373-.353zm-32.838 0s-.158-.705-.613 0l-1.062 1.609s-.22.353.28.353h1.51c.067.006.49.025.371-.353zm-7.372-.927c-.267-.41-1.389-.345-1.389-.345h-1.032c-.454 0-.495.432-.495.432l-.16.895s-.07.418.385.418l1.211-.013c1.16-.034 1.5-.438 1.578-.821.076-.37-.098-.566-.098-.566zM22.16 0c.06.004.437.038.199.373l-.721 1.02s-.198.314-.542.339v.003h-.978c-.06-.003-.438-.037-.2-.372L20.64.34s.2-.313.543-.337V0z" transform="translate(-1196 -10) translate(1196 10) translate(0 .406) translate(0 .154)"></path><path fill="#440099" d="M69.034 6.124s.503-3.099-7.395-4.777c0 0-1.45-.329-1.74.02-.27.32.848.754.848.754 2.119.913 4.471 2.327 4.532 4.12 0 0 .517 2.24-4.5 4.39 0 0-1.042.406-.905.739.102.245 1.144-.052 1.55-.156 3.695-1.062 7.575-2.736 7.61-5.09z" transform="translate(-1196 -10) translate(1196 10) translate(0 .406) translate(0 .154)"></path><path fill="#B01886" d="M64.714 6.355s.329-2.008-4.16-3.946c-.14-.052-.718-.26-.99.052-.227.26.433.743.433.743.864.763 1.696 1.81 1.666 3.022-.027 1.09-.806 2.07-1.872 2.895 0 0-1.004.714-.76 1.13.28.484 1.075.136 1.473-.01 2.155-.908 4.203-2.21 4.21-3.886z" transform="translate(-1196 -10) translate(1196 10) translate(0 .406) translate(0 .154)"></path></g></g><path fill="#440099" d="M120.693 2.677c.49 0 .934.053 1.32.157.386.105.758.264 1.105.473.041.025.072.068.085.118.013.051.007.105-.016.151l-.556 1.093c-.044.085-.136.121-.217.085-.326-.144-.618-.25-.87-.314-.249-.063-.503-.095-.755-.095-.5 0-.887.085-1.151.254-.238.152-.35.37-.35.683 0 .11.028.193.085.26.074.085.173.159.296.22.14.068.297.13.466.181.184.058.367.121.549.192.71.275 1.23.605 1.548.98.329.39.496.868.496 1.423 0 .413-.085.804-.253 1.16-.167.353-.397.663-.682.923-.285.258-.625.464-1.01.611-.385.148-.805.222-1.247.222-.333 0-.645-.024-.927-.074-.28-.048-.539-.11-.77-.184-.232-.074-.442-.158-.624-.25-.178-.088-.335-.176-.464-.26-.083-.054-.112-.172-.065-.265l.578-1.15c.046-.09.149-.125.231-.078.411.232.792.393 1.131.478.341.087.683.131 1.014.131.18 0 .343-.029.5-.089.154-.059.293-.138.412-.236.117-.095.212-.204.285-.323.069-.113.112-.229.127-.343.016-.1.013-.191-.01-.273-.02-.078-.07-.16-.151-.244-.092-.097-.228-.198-.406-.3-.187-.109-.437-.229-.744-.358-.273-.112-.532-.223-.778-.333-.26-.116-.488-.256-.68-.416-.203-.167-.365-.372-.483-.607-.12-.241-.181-.536-.181-.878 0-.44.082-.838.246-1.181.164-.343.392-.633.68-.861.282-.226.62-.398 1-.512.376-.113.791-.17 1.236-.17zm-7.667.732c.433.012.851.083 1.245.21.402.128.762.331 1.071.603.312.274.564.628.747 1.053.185.425.276.943.272 1.542-.005.733-.116 1.4-.329 1.98-.215.584-.525 1.083-.92 1.483-.395.399-.877.702-1.434.902-.504.18-1.066.272-1.674.272l-.174-.002c-.516-.015-.984-.1-1.39-.252-.414-.156-.769-.384-1.054-.676-.288-.295-.509-.66-.658-1.084-.148-.42-.221-.91-.217-1.454.005-.7.114-1.344.325-1.914.212-.575.519-1.069.911-1.468.393-.399.872-.706 1.425-.913.549-.206 1.171-.301 1.854-.282zm-6.472-2.19c.05 0 .099.025.133.068.033.043.047.1.04.157l-.249 1.827h1.555c.051 0 .1.025.133.068.033.044.048.101.04.158l-.157 1.135c-.013.096-.086.166-.173.166h-1.608l-.558 4.014c-.023.17-.031.329-.024.472.006.126.029.234.067.32.033.074.083.13.153.172.076.045.18.068.309.068.24 0 .443-.029.607-.086.18-.062.35-.125.511-.19.046-.019.097-.015.14.01.043.025.076.07.088.122l.246 1.008c.022.091-.017.188-.094.228-.15.078-.298.148-.446.21-.148.063-.303.117-.461.162-.155.044-.326.08-.508.107-.18.026-.378.04-.59.04-.313 0-.595-.053-.84-.157-.254-.108-.465-.273-.628-.494-.162-.218-.274-.494-.332-.821-.055-.317-.055-.69.003-1.11l.565-4.075h-.682c-.051 0-.1-.025-.133-.068-.033-.043-.048-.1-.04-.157l.134-.984c.011-.085.071-.151.147-.164l.793-.132.43-1.926c.02-.087.09-.148.17-.148h1.259zm-4.065 2.188c.05 0 .099.024.132.067.033.043.048.1.041.156l-.97 7.656c-.012.097-.086.168-.173.168h-1.313c-.05 0-.098-.024-.132-.067-.033-.043-.048-.1-.041-.156l.97-7.656c.013-.097.087-.168.174-.168h1.312zm-2.935-2.188c.051 0 .1.025.133.069.033.043.048.1.04.157l-1.38 9.708c-.014.095-.087.165-.173.165h-1.162c-.09 0-.164-.075-.174-.174l-.044-.435c-.29.192-.592.355-.9.486-.401.172-.854.26-1.347.26-.376 0-.73-.064-1.05-.19-.328-.128-.617-.332-.86-.607-.24-.274-.43-.626-.562-1.046-.13-.412-.197-.91-.197-1.48 0-.581.064-1.118.19-1.597.126-.478.3-.908.514-1.278.215-.37.468-.695.75-.966.281-.268.585-.494.902-.67.318-.175.645-.307.973-.39.577-.148 1.16-.143 1.562-.095.172.02.329.047.465.079s.257.068.361.109l.088.034.403-1.987c.019-.09.09-.152.171-.152h1.297zM88.599 3.105c.37 0 .716.06 1.03.181.315.12.592.291.821.509.233.219.416.48.545.775.13.298.196.628.196.98 0 .315-.042.628-.125.931-.087.314-.24.598-.454.844-.213.245-.502.444-.857.592-.352.146-.8.22-1.331.22h-2.113c.008.24.038.458.09.65.06.232.16.43.296.588.134.157.315.279.536.362.442.165 1.137.191 1.74-.031.3-.11.576-.237.823-.378.046-.027.1-.029.148-.006.048.023.084.068.099.124l.277 1.03c.024.09-.012.186-.087.229-.2.118-.403.224-.602.315-.199.09-.404.169-.61.234-.205.065-.419.115-.637.15-.216.033-.448.05-.69.05-.978 0-1.729-.302-2.233-.898-.503-.592-.757-1.456-.757-2.568 0-.767.096-1.46.286-2.061.192-.605.465-1.123.81-1.54.347-.418.764-.74 1.24-.957.474-.216.999-.325 1.56-.325zm-12.035-.428c.428 0 .852.057 1.275.17.425.113.844.305 1.258.575.085.056.112.18.06.273l-.598 1.054c-.05.086-.149.116-.23.068-.267-.157-.544-.275-.832-.354-.29-.079-.58-.118-.87-.118-.422 0-.79.078-1.107.231-.313.153-.574.37-.784.652-.212.285-.373.633-.483 1.048-.111.42-.167.892-.167 1.416 0 .679.146 1.194.432 1.554.282.353.725.533 1.34.533.35 0 .762-.05 1.044-.134.307-.09.605-.203.892-.338.096-.045.205.012.235.123l.304 1.111c.025.092-.013.191-.09.233-.417.227-.842.391-1.34.531-.394.11-.877.15-1.495.15-.549 0-1.022-.088-1.419-.266-.37-.165-.657-.407-.943-.765-.256-.32-.442-.703-.56-1.147-.117-.436-.175-.91-.175-1.424 0-.87.11-1.63.334-2.28.222-.653.528-1.196.916-1.63.398-.442.815-.743 1.33-.95.522-.21 1.08-.316 1.673-.316zm8.366.592c.045.015.083.051.105.099.021.048.024.103.008.153l-.355 1.122c-.028.091-.114.145-.197.127-.201-.043-.413-.073-.63-.09-.21-.016-.43-.01-.655.018-.222.028-.452.086-.682.173-.208.078-.422.188-.637.326l-.74 5.725c-.012.096-.086.168-.173.168H79.66c-.051 0-.1-.025-.133-.068-.033-.043-.048-.1-.04-.156l.848-6.576c.007-.058.037-.109.082-.14.813-.555 1.602-.904 2.344-1.036.745-.133 1.475-.08 2.168.155zm27.919 1.696c-.368-.01-.71.044-1.017.16-.305.116-.571.296-.793.536-.223.24-.4.55-.529.92-.13.373-.197.823-.201 1.339-.002.354.038.658.12.903.08.239.194.438.339.592.145.154.324.27.531.344.217.079.463.122.732.13.378.011.724-.042 1.033-.157.303-.113.567-.29.783-.53.217-.24.39-.55.513-.925.126-.381.191-.84.195-1.365.002-.33-.038-.618-.12-.857-.08-.236-.195-.435-.34-.59-.147-.158-.325-.28-.532-.362-.213-.084-.453-.13-.714-.138zm-16.584-.257c-.356 0-.698.066-1.015.196-.313.128-.59.325-.826.587-.235.262-.424.596-.561.992-.138.4-.209.88-.209 1.429 0 .671.133 1.167.396 1.473.264.309.615.459 1.072.459.283 0 .591-.049.915-.145.298-.088.584-.225.851-.406l.603-4.35c-.118-.057-.268-.107-.447-.149-.246-.057-.508-.086-.78-.086zm-8.55.153c-.207.104-.395.248-.56.43-.165.184-.309.405-.426.659-.086.186-.16.384-.22.593h1.86c.207 0 .393-.011.554-.033.144-.02.266-.06.363-.118.086-.052.15-.124.194-.22.048-.103.072-.249.072-.433 0-.181-.033-.335-.097-.457-.068-.129-.156-.235-.263-.317-.11-.085-.237-.15-.375-.192-.398-.122-.786-.07-1.102.088zm3.686-3.642c.073 0 .138.05.164.126.026.076.006.162-.048.216l-1.352 1.335c-.032.033-.074.05-.116.05-.02 0-.039-.004-.058-.012l-.662-.262c-.05-.02-.09-.065-.108-.122-.017-.058-.01-.12.02-.171l.645-1.073c.033-.054.087-.087.145-.087h1.37z" transform="translate(-1196 -10) translate(1196 10)"></path></g></g></g></svg>